<?xml version="1.0" encoding="utf-8"?>
<!DOCTYPE svg PUBLIC "-//W3C//DTD SVG 1.0//EN" "http://www.w3.org/TR/2001/REC-SVG-20010904/DTD/svg10.dtd">
<svg version="1.0" xmlns="http://www.w3.org/2000/svg" width="166px" height="304px" viewBox="0 0 166 304" preserveAspectRatio="xMidYMid meet">
 <g fill="#ffffff">
  <path d="M0 152 l0 -152 83 0 83 0 0 152 0 152 -83 0 -83 0 0 -152z m14.40 143.50 c1.30 -1 3.20 -3 4.20 -4.50 3.55 -5.25 3.55 -5.20 3.80 -38.60 l0.15 -29.90 -3.50 0 -3.55 0 0 28.15 c0 15.45 -0.20 30.05 -0.45 32.40 -0.60 5.75 -2.05 8.40 -6.40 12.05 l-1.60 1.30 1 1.30 c1 1.30 1.05 1.30 2.50 0.45 0.85 -0.50 2.55 -1.70 3.85 -2.65z m35.70 -12.80 c1.25 -0.40 3.55 -1.65 5.10 -2.70 2 -1.40 3.35 -2 4.55 -2 1.55 0 1.75 0.15 1.75 1.40 0 3.05 0.45 3.60 2.85 3.60 l2.20 0 -0.15 -17.35 c-0.15 -19.10 -0.20 -19.15 -3.35 -22.75 -0.85 -0.95 -2.75 -2.30 -4.15 -2.95 -2.30 -1.05 -3.40 -1.20 -8.40 -1.20 -4.90 0 -6.40 0.20 -10.30 1.45 -4.10 1.30 -4.50 1.50 -4.35 2.55 0.25 1.10 0.25 1.10 3.30 0.35 1.80 -0.45 5.50 -0.80 8.85 -0.80 4.80 -0.05 6.05 0.10 7.70 0.95 3.40 1.75 4 3.05 4.20 9.30 l0.20 5.45 -4.25 0 c-13.90 0 -23.05 5.75 -23.05 14.50 0 5.70 3.70 9.75 9.95 10.95 2.30 0.45 4 0.25 7.35 -0.75z m88.20 -0.25 c1.40 -0.55 3.65 -1.75 5 -2.70 4.15 -2.95 6.15 -2.35 6.20 1.90 0 1.25 0.15 1.35 2.25 1.35 l2.25 0 0 -17.10 c-0.05 -13 -0.20 -17.60 -0.70 -19.05 -2.95 -8.15 -13.35 -10.60 -26.65 -6.25 -3.20 1.05 -3.40 1.25 -2.85 2.55 0.25 0.65 0.60 0.65 3.10 -0.05 4.35 -1.15 13.80 -1.10 16.50 0.10 3.35 1.50 4.10 3.20 4.10 9.40 l0 5.25 -5.85 0.30 c-10.70 0.50 -17.20 3.65 -19.95 9.60 -1.60 3.35 -1.55 6.35 0.10 9.65 1.45 2.90 4.70 5.40 7.65 5.90 1 0.15 2.05 0.35 2.30 0.45 0.85 0.30 3.85 -0.35 6.55 -1.30z m-37.70 -4.20 c4 -9.15 8.50 -23.80 11.65 -38.10 0.25 -1.10 0.15 -1.15 -2.95 -1.15 l-3.25 0 -0.30 1.90 c-1.65 10.35 -4.45 21.85 -7.55 31.25 l-1.30 3.90 -1.80 -0.15 -1.75 -0.15 -1.40 -5.50 c-0.75 -3 -3.15 -11.25 -5.35 -18.25 l-4 -12.75 -3.25 -0.15 -3.30 -0.15 0.70 2.15 c1.05 3.25 5.80 18.60 11.05 35.80 l1.85 6.15 4.50 -0.15 4.50 -0.15 1.95 -4.50z m-7.70 -72.60 c-1.05 -0.10 -2.75 -0.10 -3.75 0 -1.05 0.10 -0.20 0.20 1.85 0.20 2.05 0 2.90 -0.10 1.90 -0.20z m11 -0.50 c-0.75 -0.10 -2.10 -0.10 -3 0 -0.90 0.10 -0.30 0.20 1.35 0.20 1.65 0 2.40 -0.10 1.65 -0.20z m12.60 -0.95 c7.60 -0.85 18.60 -2.85 22 -3.90 3.25 -1.05 1.75 -0.95 -3.10 0.20 -5.25 1.25 -15.30 2.85 -23.40 3.70 -3.45 0.40 -5.35 0.70 -4.25 0.75 1.10 0 5.05 -0.30 8.75 -0.75z m-14.50 -9.45 c8.15 -0.85 7.80 -0.80 16.90 -2.30 3.65 -0.60 6.55 -1.20 6.40 -1.30 -0.10 -0.10 -3.30 0.15 -7.15 0.55 -27.90 3.10 -68.30 2.65 -86.75 -0.90 -5 -1 -9.80 -2.55 -10.95 -3.60 -1.10 -1 -1.30 -4.60 -0.30 -5.65 0.30 -0.40 -1.20 0.25 -3.45 1.40 -2.20 1.15 -4.65 2.75 -5.45 3.55 l-1.40 1.45 1.70 1 c0.95 0.60 2.50 1.30 3.45 1.55 5.10 1.50 29.50 4.50 42.25 5.20 8.05 0.40 37.75 -0.20 44.75 -0.95z m-14.95 -18.80 c6.65 -0.65 13.85 -2.05 19.30 -3.70 l4.35 -1.35 -3.25 -1.70 -3.20 -1.75 -7.25 1 c-10.40 1.45 -17.10 1.75 -26.60 1.10 -12.95 -0.90 -16.05 -1.60 -17.15 -3.90 l-0.55 -1.10 -1.60 1.10 c-0.85 0.60 -1.70 1.40 -1.80 1.70 -0.60 1.45 4.05 4.30 9.75 6.10 8.40 2.60 18.35 3.50 28 2.50z m0.95 -22.95 c9.20 -0.85 25.50 -3.75 25.50 -4.55 0 -0.20 -0.75 -0.85 -1.65 -1.40 l-1.65 -1 -8.75 1.35 c-8.15 1.25 -9.75 1.30 -25.45 1.30 -22.95 0 -28.05 -0.80 -28.40 -4.60 l-0.15 -1.60 -2.25 1.50 c-1.20 0.85 -2.20 1.75 -2.20 2 0 0.80 3.35 3.05 6.05 4 8.65 3 24.75 4.25 38.95 3z m61.70 -12.30 c4.70 -3.85 7.80 -9.05 7.80 -13.05 0 -4 -4.65 -9.75 -9.15 -11.30 l-2.15 -0.70 2.60 2.60 c3.15 3.10 3.85 5.30 3.60 10.75 -0.20 4.85 -2.25 9.15 -6.35 13.30 -2.35 2.40 -2.55 2.70 -1.15 1.90 0.95 -0.50 3.10 -2.10 4.80 -3.50z m-62.30 -9.95 c9.25 -0.80 17.45 -1.90 22.35 -3 l3 -0.70 -2.50 0.25 c-14.50 1.35 -20.50 1.80 -32.60 2.25 -21.25 0.80 -36.35 -0.30 -39.20 -2.85 -1.10 -1 -1.30 -4.15 -0.35 -5.10 0.35 -0.35 0.45 -0.60 0.25 -0.60 -0.65 0 -9.15 3.80 -10.35 4.65 l-1.20 0.80 2.40 1.05 c2.90 1.30 10.90 2.85 17.55 3.45 8.40 0.70 31.25 0.60 40.65 -0.20z m15.85 -22.75 c1.90 -3.10 2.50 -5.70 2.05 -8.30 -0.20 -1 -2.20 -4.50 -4.65 -8.10 -4.70 -6.85 -5.95 -9.60 -6.45 -13.75 -0.90 -7.80 2.70 -13.20 15.55 -23.25 2.20 -1.75 -4.75 2 -9 4.85 -8 5.30 -14.15 13.60 -14.65 19.75 -0.40 5.10 2.90 12.90 8.10 19 3.40 3.95 4.30 6.25 4.30 11.25 l0 4.25 1.55 -1.50 c0.85 -0.80 2.30 -2.70 3.20 -4.20z m-32.70 -10.30 c-3.15 -4.90 -4.20 -8.50 -4.45 -14.70 -0.15 -4.90 -0.05 -6.20 0.90 -8.95 2.15 -6.45 6.10 -11.20 16.85 -20.15 7.45 -6.20 12.85 -11.80 16.60 -17.05 2.55 -3.65 6.20 -11.15 7 -14.45 0.60 -2.65 0.65 -7 0.05 -8.90 -0.30 -1 -0.40 -0.75 -0.45 1.25 -0.15 6.65 -3.45 14.20 -9 20.60 -3.90 4.50 -6 6.35 -18.05 16.05 -4.80 3.85 -9.75 8 -11 9.20 -5.90 5.60 -9.65 11.20 -10.30 15.30 -0.55 3.60 2.40 11.05 6.45 16.35 2.15 2.75 6.40 7.75 6.65 7.75 0.10 0 -0.50 -1.05 -1.25 -2.30z"/>
  <path d="M42.75 279.05 c-2.75 -1.25 -3.40 -2.60 -3.65 -7.35 -0.45 -8.35 2.80 -10.65 15.05 -10.70 l5.85 0 0 7.15 0 7.10 -2.40 1.65 c-4.55 3.10 -10.85 4 -14.85 2.15z"/>
  <path d="M130.75 279.30 c-3.10 -1.35 -3.50 -2.35 -3.50 -8.30 0 -6.20 0.35 -6.90 4.25 -8.65 1.80 -0.85 3.55 -1.10 9.15 -1.25 l6.85 -0.20 0 7.25 0 7.30 -2.30 1.60 c-1.30 0.85 -3.35 1.90 -4.60 2.25 -2.85 0.90 -7.90 0.85 -9.85 0z"/>
 </g>
 <g fill="#4f7f9f">
  <path d="M6 298.50 c-1.15 -1.40 -2.05 -2.60 -1.95 -2.65 3.80 -2.50 6.65 -5.35 8 -8.05 1.65 -3.10 1.95 -8.85 1.95 -38.65 l0 -28.15 5 0 5 0 0 28.40 c0 35.50 -0.30 38.45 -4.40 43.85 -1.95 2.60 -7.90 7 -10.15 7.50 -1.10 0.30 -1.60 -0.05 -3.45 -2.25z"/>
  <path d="M41.25 285 c-6.25 -1.35 -9.55 -4.95 -10.10 -11.05 -0.55 -5.85 1.95 -10.85 6.90 -13.80 3.75 -2.25 7.70 -3.20 14.65 -3.50 l5.90 -0.30 -0.20 -3.95 c-0.25 -4.55 -1.10 -6.10 -4.20 -7.65 -2.65 -1.35 -9.40 -1.25 -14.90 0.20 -2.20 0.60 -4.15 0.90 -4.35 0.70 -0.55 -0.65 -1.40 -4.90 -1.05 -5.20 0.20 -0.20 2.25 -1 4.60 -1.75 3.85 -1.25 4.95 -1.40 11.75 -1.40 6.85 -0.05 7.70 0.05 10.15 1.15 1.40 0.65 3.30 2 4.15 2.95 3.20 3.65 3.20 3.50 3.35 24.25 l0.15 18.85 -3.70 0 c-4.05 0 -4.35 -0.20 -4.35 -3.60 0 -0.80 -0.10 -1.40 -0.25 -1.40 -0.15 0 -1.35 0.80 -2.75 1.80 -4.55 3.25 -10.90 4.75 -15.75 3.70z m10 -7.20 c1.30 -0.40 3.50 -1.50 4.85 -2.40 l2.40 -1.65 0 -5.60 0 -5.65 -4.35 0 c-9.95 0.05 -14.15 2.90 -13.50 9.25 0.35 3.40 1.15 4.65 3.60 5.80 2.45 1.15 3.85 1.15 7 0.25z"/>
  <path d="M130.25 285.30 c-0.25 -0.15 -1.30 -0.35 -2.30 -0.50 -2.95 -0.50 -6.20 -3 -7.65 -5.90 -1.80 -3.55 -1.80 -9 -0.10 -12.65 2.75 -5.95 9.25 -9.10 19.95 -9.60 l5.85 -0.30 0 -3.75 c0 -4.55 -1 -6.50 -4.10 -7.90 -3.05 -1.35 -9.80 -1.20 -15.25 0.40 l-4.05 1.20 -0.60 -2.90 c-0.35 -1.60 -0.55 -3 -0.45 -3.10 0.55 -0.40 7.05 -2.30 9.80 -2.80 1.70 -0.35 5.50 -0.55 8.75 -0.45 5 0.20 6 0.35 8.55 1.60 1.55 0.80 3.45 2.20 4.15 3.15 2.55 3.35 2.65 4.05 2.70 24.10 l0 18.60 -3.75 0 -3.75 0 -0.05 -1.60 c-0.05 -3.40 -0.45 -3.60 -3.15 -1.65 -1.35 0.95 -3.70 2.20 -5.20 2.75 -2.60 1 -8.20 1.75 -9.35 1.30z m8.85 -7.50 c1.25 -0.35 3.30 -1.40 4.60 -2.25 l2.30 -1.60 0 -5.80 0 -5.80 -5.35 0.25 c-5.80 0.25 -9 1.25 -10.90 3.40 -0.80 0.90 -1 1.80 -1 5 0 3.20 0.20 4.10 1 5 2.15 2.40 5.35 3 9.35 1.80z"/>
  <path d="M86.30 278.40 c-2.60 -8.60 -5.20 -16.90 -9 -29.30 -1.80 -5.90 -3.30 -10.90 -3.30 -11.15 0 -0.30 2.10 -0.45 5.05 -0.35 l5.05 0.15 4.45 14.25 c2.45 7.85 4.80 15.95 5.25 18 0.45 2.05 1 3.95 1.20 4.15 1.10 1.25 7.10 -21.35 9.25 -34.75 l0.30 -1.90 5 0 5.05 0 -0.35 1.65 c-2.75 13.65 -7.95 31 -12.15 40.60 l-1.95 4.50 -6 0.15 -6 0.15 -1.85 -6.15z"/>
  <path d="M158.05 239.90 c0 -1 -0.35 -1.95 -0.65 -2.05 -0.35 -0.15 0 -0.30 0.80 -0.30 1.10 -0.05 1.30 0.10 0.90 0.60 -0.30 0.30 -0.60 1.30 -0.75 2.10 -0.20 1.40 -0.20 1.35 -0.30 -0.35z"/>
  <path d="M160.15 239.70 c0.25 -2.35 1.10 -2.75 1.75 -0.85 l0.50 1.40 0.55 -1.35 c0.80 -2.05 1.55 -1.70 1.50 0.75 -0.05 1.95 -0.10 2 -0.45 0.60 -0.20 -0.80 -0.40 -1.25 -0.45 -1 -0.05 0.30 -0.30 0.85 -0.55 1.25 -0.40 0.65 -0.55 0.60 -1.20 -0.25 -0.65 -0.85 -0.75 -0.90 -0.80 -0.15 0 0.45 -0.25 1 -0.50 1.15 -0.35 0.20 -0.45 -0.35 -0.35 -1.55z"/>
  <path d="M67.50 206.95 c-10.05 -0.50 -19.55 -1.75 -25.45 -3.25 -4.50 -1.20 -8.20 -2.70 -4.80 -1.95 3.45 0.75 14.80 1.75 25.50 2.30 39.60 1.95 84.25 -4.70 94.95 -14.05 l1.90 -1.70 -0.85 2 c-1.80 4.40 -6.40 7.50 -15.50 10.45 -16.10 5.30 -46 7.75 -75.75 6.20z"/>
  <path d="M56 197.20 c-12.20 -0.70 -31.75 -2.95 -39.50 -4.50 -6.05 -1.25 -9 -3.30 -8.25 -5.70 1.75 -5.55 23.70 -12.90 31.25 -10.50 1.15 0.35 1.10 0.40 -0.55 0.45 -2.60 0.05 -10.90 2.25 -13.50 3.55 -2.50 1.25 -4.45 2.90 -4.45 3.75 0 1.70 4.55 3.60 11.90 5.05 23.20 4.50 74.35 3.70 100.45 -1.55 11.50 -2.35 16.05 -5.15 14.15 -8.75 -0.55 -1 -0.50 -1.05 0.45 -0.50 1.70 0.90 2.65 2.70 2.10 4.05 -2.10 5.55 -20.25 10.90 -46.65 13.75 -6.85 0.70 -39.40 1.35 -47.40 0.90z"/>
  <path d="M70.60 177.50 c-9.40 -1 -17.85 -3.55 -21.65 -6.60 -0.95 -0.80 -1.95 -2.60 -1.95 -3.55 0 -1.25 3.10 -3.80 5.85 -4.85 3.25 -1.20 3.45 -1.20 2.45 -0.20 -2.50 2.50 0.80 4.30 9.45 5.15 13.70 1.35 21.25 1.15 34 -0.95 l6 -1 5.45 2.70 c6.30 3.15 6.40 2.85 -2.25 5.45 -11.20 3.40 -26.55 5 -37.35 3.85z"/>
  <path d="M62.25 154.45 c-12.40 -1.30 -20.75 -4.50 -21.15 -8.15 -0.20 -1.75 1.95 -3.75 6.20 -5.80 1.75 -0.80 3.30 -1.50 3.45 -1.50 0.15 0 -0.20 0.65 -0.80 1.45 -1.35 1.85 -1.10 3.55 0.85 4.65 2.65 1.55 9.10 2.10 24.95 2.10 15.25 0.05 18.95 -0.25 31.15 -2.50 4.05 -0.75 4.15 -0.70 5.70 0.35 0.80 0.60 2.65 1.70 4 2.45 1.40 0.75 2.30 1.50 2 1.70 -1.95 1.20 -19.85 4.45 -29.10 5.30 -6.65 0.60 -21.40 0.55 -27.25 -0.05z"/>
  <path d="M127.50 153.05 c0 -0.20 0.85 -0.75 1.90 -1.25 3.70 -1.75 11.45 -7.30 14.65 -10.55 2.05 -2.05 4 -4.60 5 -6.65 1.45 -2.85 1.70 -3.80 1.70 -6.90 0 -3.20 -0.15 -3.85 -1.50 -5.75 -2.20 -3.10 -4.60 -4.80 -8.05 -5.70 -3 -0.75 -4.85 -0.65 -8.50 0.50 -0.80 0.30 -0.75 0.15 0.20 -0.70 1.65 -1.45 5.70 -2.55 9.40 -2.55 11.05 0 18.85 8.40 16.45 17.70 -1.70 6.40 -7.20 12.05 -16.15 16.55 -5.65 2.80 -15.10 6.15 -15.10 5.30z"/>
  <path d="M45.50 132.45 c-10.05 -0.85 -18.40 -2.90 -20.20 -4.90 -0.70 -0.75 -0.75 -1.20 -0.35 -2 1.15 -2.15 13.30 -7.05 21.90 -8.80 3.50 -0.75 13.85 -1.60 11.40 -0.95 -8.60 2.25 -17.30 5.70 -18.75 7.45 -0.55 0.70 -0.55 0.95 0.35 1.80 1.85 1.85 5.55 2.45 19.65 3.20 6.45 0.35 27.85 -0.50 39 -1.50 7.50 -0.70 23.55 -2.80 26.90 -3.55 0.75 -0.15 -0.70 0.85 -3.20 2.20 -6.35 3.50 -15.10 5.30 -33.30 6.85 -9.35 0.80 -35.10 0.90 -43.40 0.20z"/>
 </g>
 <g fill="#f8981d">
  <path d="M93.10 119.55 c2.55 -3 3.50 -5.20 3.80 -8.90 0.30 -4.05 -0.70 -6.75 -4 -10.75 -5.95 -7.15 -8.60 -13.70 -8.35 -20.60 0.20 -3.65 0.45 -4.60 2.15 -7.95 4 -7.90 12.75 -14.90 25.85 -20.70 4.85 -2.15 16.45 -6.30 16.45 -5.90 0 0.10 -1.30 0.90 -2.85 1.80 -11.60 6.60 -23.75 16 -27.25 21.25 -4.90 7.15 -4.35 11.35 2.85 21.70 2.10 3 4.10 6.25 4.55 7.25 0.80 1.95 1 5.65 0.45 8.25 -1.05 4.90 -7.50 12 -14.75 16.25 -0.40 0.25 0.10 -0.50 1.10 -1.70z"/>
  <path d="M75.70 106.90 c-20 -19.60 -23.35 -30.55 -13.05 -42.65 3.75 -4.40 6.15 -6.55 15.85 -14.35 12.05 -9.70 14.15 -11.55 18.05 -16.05 3.95 -4.60 7.10 -10.35 8.25 -15.15 0.80 -3.55 0.80 -12.85 -0.05 -14.90 -0.85 -2.05 0.80 -0.15 2.10 2.35 1.85 3.70 2.65 7.05 2.65 11.50 0 5 -0.65 7.55 -3.25 13.10 -4.05 8.55 -9.90 15.45 -20.90 24.65 -14.15 11.85 -18.25 18.15 -17.75 27.60 0.35 6 1.95 9.50 9.15 20.25 5.70 8.50 7.05 10.75 6.45 10.75 -0.15 0 -3.50 -3.20 -7.50 -7.10z"/>
 </g>
</svg>